PathFileType	4	(X/Y/Z)	 s05c0403.trc
DataRate	CameraRate	NumFrames	NumMarkers	Units	OrigDataRate	OrigDataStartFrame	OrigNumFrames
200	200	7	49	mm	200	751	2000
Frame#	Time	racr			lacr			c7			jug			rlel			rdr			llel			ldr			s2			lic			ric			lasi			rasi			rpsi			lpsi			rgt			lgt			rth1			rth2			rth3			rth4			rlfc			rsh1			rsh2			rsh3			rsh4			rlmal			rmmal			rcal			rtoe			rmt5			lth1			lth2			lth4			lth3			llfc			lmfc			lsh1			lsh2			lsh3			lsh4			llmal			lmmal			lcal			ltoe			lmt5			SBIKE			LBIKE			RBIKE			
		X1	Y1	Z1	X2	Y2	Z2	X3	Y3	Z3	X4	Y4	Z4	X5	Y5	Z5	X6	Y6	Z6	X7	Y7	Z7	X8	Y8	Z8	X9	Y9	Z9	X10	Y10	Z10	X11	Y11	Z11	X12	Y12	Z12	X13	Y13	Z13	X14	Y14	Z14	X15	Y15	Z15	X16	Y16	Z16	X17	Y17	Z17	X18	Y18	Z18	X19	Y19	Z19	X20	Y20	Z20	X21	Y21	Z21	X22	Y22	Z22	X23	Y23	Z23	X24	Y24	Z24	X25	Y25	Z25	X26	Y26	Z26	X27	Y27	Z27	X28	Y28	Z28	X29	Y29	Z29	X30	Y30	Z30	X31	Y31	Z31	X32	Y32	Z32	X33	Y33	Z33	X34	Y34	Z34	X35	Y35	Z35	X36	Y36	Z36	X37	Y37	Z37	X38	Y38	Z38	X39	Y39	Z39	X40	Y40	Z40	X41	Y41	Z41	X42	Y42	Z42	X43	Y43	Z43	X44	Y44	Z44	X45	Y45	Z45	X46	Y46	Z46	X47	Y47	Z47	X48	Y48	Z48	X49	Y49	Z49	
751	3.7550	844.275003	1262.419531	-108.608009	829.550146	1270.823552	-421.665846	840.331517	1358.797408	-272.636960	776.626216	1198.907300	-264.745523	624.927222	1147.114375	69.688320	689.593026	950.200567	-16.833616	578.602857	1177.188920	-589.805882	683.072927	972.672779	-495.464789	244.590564	1260.535763	-224.269700	382.606574	1233.884506	-373.450311	397.348952	1248.823316	-88.915806	416.645039	1171.034286	-338.882152	413.582921	1178.478509	-117.447671	291.524047	1298.001335	-185.581280	292.803049	1296.866466	-272.619397	320.787979	1124.834408	-58.759658	291.303227	1151.342579	-394.063036	395.869733	1027.215596	-47.066884	461.964902	967.800596	-53.636052	487.890349	883.816672	-59.283667	490.068766	987.042541	-66.668070	544.679084	753.347516	-90.391703	440.332669	723.388150	-62.980918	370.639904	669.942910	-79.842508	286.794343	655.011256	-83.637621	385.125504	646.791478	-106.685440	166.459494	599.508504	-94.095044	199.511445	609.969431	-173.494418	107.907751	649.795121	-139.555379	199.234759	368.525027	-155.140212	140.908714	448.684453	-84.853334	327.348598	1010.496578	-422.848700	372.478645	938.003683	-422.367298	407.765780	946.635676	-412.025673	373.254714	847.270786	-424.380308	400.010281	706.905978	-399.927725	383.280286	690.946907	-296.756813	334.255239	597.780444	-434.749063	325.910557	510.918040	-427.897846	274.432416	438.533657	-432.174330	354.106840	501.741521	-403.248886	237.937786	323.799192	-430.975666	281.720522	352.408573	-358.894983	170.083518	310.722570	-390.088239	427.851649	167.446332	-393.695208	319.501285	188.948011	-458.245545	-163.796213	902.902153	-266.803593	-43.447961	84.997908	-474.595408	-51.694073	80.297889	-77.102213	
752	3.7600	844.372229	1262.745487	-105.762434	830.623204	1272.443762	-418.570580	840.563322	1359.696754	-268.953233	776.926384	1199.731512	-262.117958	623.873395	1146.287875	70.164805	689.326941	950.314880	-17.140947	581.169191	1178.807872	-588.507246	683.953246	972.804236	-495.540745	244.184400	1258.633279	-227.515447	384.445890	1230.313790	-374.563406	395.241799	1249.611435	-90.482750	417.499942	1168.741515	-339.647890	412.421026	1179.142158	-118.333217	290.104590	1296.880538	-189.252179	293.945289	1293.975051	-275.435704	320.116471	1125.952004	-59.539866	291.947768	1147.369461	-394.760094	397.513793	1030.100879	-46.610778	465.220655	972.313520	-53.013623	493.656443	889.322717	-58.040576	493.903421	992.131762	-66.571515	553.724782	760.292087	-88.862055	449.454620	730.157098	-62.029212	379.746855	676.803909	-79.168962	296.003192	661.877919	-83.372256	394.377549	653.336768	-105.767222	175.834820	606.002043	-94.308722	208.981516	616.371559	-173.483155	117.536967	656.344446	-139.637500	208.270228	374.940075	-155.058454	150.171612	455.175173	-84.910360	325.453031	1006.270958	-423.290287	368.455794	932.388415	-421.924828	403.858322	940.173084	-411.386367	365.494032	842.050380	-423.973269	389.905833	701.170639	-398.800464	371.464188	685.434476	-296.161715	324.696379	592.272419	-434.487611	316.856037	505.365861	-427.585581	265.806553	432.628393	-431.992022	344.952732	496.231387	-402.732358	230.547209	318.350955	-431.023950	276.712400	348.324209	-358.866459	162.859921	305.927945	-390.131630	419.100990	159.728388	-393.738277	311.051168	182.606339	-458.276182	-163.843665	902.858295	-266.958072	-43.454118	84.985546	-474.585188	-51.693420	80.305821	-77.094784	
753	3.7650	844.347571	1262.968064	-103.002318	831.568910	1274.069324	-415.450699	840.650056	1360.278911	-265.502113	777.120947	1200.473984	-259.534133	622.868409	1145.479087	70.679436	689.172607	950.493941	-17.343198	583.968265	1180.151169	-587.311258	685.166219	972.812766	-495.498627	243.704897	1256.526238	-230.788792	386.393243	1226.872753	-375.888326	393.086243	1250.340839	-92.198678	419.224652	1165.543346	-340.195534	411.375813	1179.719785	-119.146461	288.897098	1295.415831	-192.512284	293.867660	1291.384121	-278.694235	319.307618	1126.978842	-60.229158	292.768956	1143.426650	-395.462331	398.846448	1033.046088	-46.652425	468.401174	977.548645	-51.793591	498.933695	895.062698	-56.611795	495.899466	998.096272	-65.143834	562.402770	767.541228	-87.168252	458.280778	737.085905	-61.106639	388.825034	683.668400	-78.423519	304.708828	668.888476	-83.257148	403.437455	659.917622	-104.939986	185.269880	611.873416	-94.481619	218.558919	622.307768	-173.525638	126.868802	662.113592	-139.936609	218.003551	380.935316	-154.931740	160.152454	461.238887	-84.495044	323.551613	1002.117946	-423.624582	364.432643	927.137520	-421.649938	399.928175	933.890002	-410.827878	360.487786	836.521541	-422.812307	379.836976	696.026725	-398.090619	359.513159	680.312902	-295.843986	315.097481	587.241291	-434.422541	307.627446	500.447361	-427.494786	256.927838	427.412650	-431.997882	335.683345	491.460436	-402.606582	222.838853	313.420393	-431.095312	271.507092	344.794227	-358.821791	155.239384	301.866989	-390.331080	409.956269	152.632689	-393.754830	302.182836	176.727467	-458.328504	-163.840293	902.881992	-267.001606	-43.472365	84.980874	-474.600810	-51.700964	80.317912	-77.094068	
754	3.7700	844.430615	1263.126534	-100.004049	832.420172	1275.702029	-412.280022	840.697465	1360.806985	-262.049208	777.214643	1201.147876	-256.827778	621.737007	1144.526185	71.468282	689.107632	950.732862	-17.352188	586.833361	1181.374957	-586.120093	686.675522	972.635418	-495.410996	243.327205	1254.488381	-234.093175	388.491783	1223.485169	-376.873888	390.947100	1251.022937	-93.971950	420.713419	1161.970166	-338.662273	410.264529	1180.219165	-119.927817	287.766366	1293.953109	-196.183909	294.067288	1288.860362	-282.046307	318.522062	1128.091738	-60.880552	293.718969	1139.587169	-396.204180	400.005764	1036.086576	-46.915181	471.181166	982.621031	-50.972688	503.890862	900.918139	-55.201832	497.758038	1004.033161	-64.153586	570.819055	775.000111	-85.502879	466.914023	744.135170	-60.070379	397.724017	690.508115	-77.749932	313.684762	675.454546	-82.922542	412.572031	666.607555	-103.854683	194.646243	617.368005	-94.694727	228.011766	627.804669	-173.504386	135.918052	667.068000	-140.128000	227.677898	386.038386	-155.307480	169.725247	466.520814	-85.021812	321.740788	998.218950	-423.878594	360.511837	922.199087	-421.619321	395.985477	928.012908	-410.260586	354.050381	831.885509	-422.638296	369.889957	691.428218	-397.708623	347.337510	676.115474	-295.789210	305.563154	582.981318	-434.772816	298.234769	496.329098	-427.731396	247.803542	423.052728	-432.274316	326.326539	487.326110	-402.771871	214.811598	309.057708	-431.401160	266.128635	341.807626	-358.762706	147.429970	298.404302	-390.687434	400.413133	146.170375	-393.872358	292.934610	171.526462	-458.408905	-163.700422	902.877327	-266.911702	-43.476392	84.982332	-474.612447	-51.706287	80.311944	-77.102483	
755	3.7750	844.419172	1263.105954	-96.963069	833.181381	1277.362368	-409.040608	840.654833	1361.287312	-258.450963	777.201953	1201.774565	-254.159154	620.527450	1143.816496	72.487880	689.049448	950.923998	-17.425113	589.931359	1182.337153	-584.998464	688.462390	972.304646	-495.229017	242.921865	1252.501622	-237.967347	390.676632	1220.397114	-378.011306	388.870284	1251.631248	-95.336614	422.064172	1159.373002	-338.503198	409.085639	1180.577786	-120.636876	286.591472	1292.421691	-200.178292	294.187433	1286.452466	-285.327005	317.575104	1129.025830	-61.923444	294.696703	1135.956789	-396.848487	400.860590	1039.181198	-47.347331	473.561618	987.495291	-50.268972	508.872071	906.674941	-54.537578	499.693914	1009.704880	-63.365625	578.780247	782.470627	-83.840315	474.899143	750.994804	-59.267464	406.322588	697.129885	-77.055893	322.479323	681.813587	-82.683918	421.556559	673.092522	-102.763326	204.160779	622.301900	-94.722835	237.198629	632.951266	-173.536364	145.352834	671.649229	-140.110826	238.762998	391.662210	-154.387741	179.832409	471.357629	-85.034383	320.163987	995.012418	-424.513483	356.814927	917.910399	-421.818174	391.928190	922.519864	-409.416106	347.943727	828.046602	-422.977935	360.187786	687.696944	-397.549744	335.735737	672.364066	-295.775893	296.054278	579.380818	-435.209848	288.916700	492.869624	-428.184888	238.568434	419.467951	-432.773457	316.994395	483.933989	-403.224930	206.646385	305.342195	-431.822463	260.601069	339.353405	-358.690932	139.400395	295.565161	-391.109634	390.622554	140.174252	-393.988768	283.418234	166.779729	-458.580924	-163.768248	902.879169	-267.009163	-43.490016	84.949534	-474.624912	-51.705820	80.326251	-77.127469	
756	3.7800	844.438494	1263.001829	-93.870073	833.812247	1278.847401	-405.661530	840.618337	1361.657133	-254.956825	777.019822	1202.430308	-251.181762	619.176606	1143.028243	73.810763	689.006645	951.194925	-17.407023	593.209903	1183.085306	-583.988205	690.420043	971.896182	-494.918060	242.747774	1250.489653	-241.155286	392.884888	1217.355563	-378.828884	386.525786	1252.222875	-96.902144	423.398481	1157.028953	-338.181660	407.929731	1180.967989	-121.326106	285.588224	1291.077690	-203.084945	295.320783	1284.098966	-288.306246	316.649647	1129.883891	-62.872177	295.899553	1132.664668	-397.563855	401.635694	1042.184164	-47.627717	475.553090	992.312810	-49.355161	513.149023	912.583505	-53.276280	501.315721	1015.280678	-62.655372	586.330723	789.969860	-82.241876	482.815562	758.117210	-58.502569	414.781440	703.624915	-76.332254	331.064984	687.642582	-82.646404	430.400972	679.444868	-101.506973	213.731000	626.571889	-95.107485	246.654210	637.424462	-173.347178	154.683579	675.554322	-140.126933	248.922876	395.719928	-154.838299	189.883592	475.466204	-85.047816	318.734372	992.382665	-425.159204	353.358147	914.374635	-422.229981	388.381601	918.126008	-409.401515	342.102755	824.354725	-422.797704	350.915174	684.723523	-397.666470	324.631154	669.617956	-295.849524	286.626238	576.820780	-435.831444	279.619963	490.083969	-428.846894	229.498127	416.653197	-433.546025	307.789700	481.226730	-403.908265	198.327029	302.263376	-432.453436	254.948433	337.420565	-358.608197	131.180828	293.437588	-391.699543	380.554005	134.960241	-394.034421	273.727186	162.641249	-458.722107	-163.726688	902.895341	-266.960173	-43.500038	84.943768	-474.630531	-51.716660	80.317060	-77.139187	
757	3.7850	844.404822	1262.768467	-90.750805	834.422932	1280.232110	-402.285898	840.475504	1361.915169	-251.306964	776.841029	1202.871160	-248.474646	617.753993	1142.427396	75.294944	688.988642	951.542929	-17.357368	596.524977	1183.545078	-583.081971	692.474567	971.410734	-494.381239	242.598585	1248.572702	-244.173187	394.909669	1214.624836	-379.753294	384.359765	1252.698972	-98.497457	424.728376	1154.703163	-337.744219	406.667886	1181.339049	-121.690856	283.994933	1290.189903	-206.213889	294.707232	1282.088794	-291.991952	315.586006	1130.826439	-63.766944	297.292603	1129.765427	-398.326125	402.274248	1045.202799	-47.583536	477.438599	997.090823	-48.837036	517.049274	918.303649	-52.135400	502.377482	1020.839978	-61.837212	593.584255	797.641145	-80.227256	490.174455	765.297014	-57.592977	422.954599	710.281291	-75.343688	339.271049	693.365952	-82.224288	438.968419	685.414540	-100.368989	222.759263	630.272200	-95.468232	256.228678	641.276854	-172.820410	163.570371	678.800482	-140.214705	259.788954	399.516490	-154.898906	200.311811	478.895991	-85.056921	317.505795	990.563239	-425.736094	350.167283	911.698766	-422.689362	385.137055	914.506100	-409.418907	336.810151	821.966066	-423.381234	341.894403	682.416179	-398.134499	314.553752	667.516167	-296.158502	277.412472	574.745167	-436.705405	270.553921	487.964068	-429.737751	220.534244	414.425821	-434.413290	298.764012	479.078683	-404.918527	189.850185	299.741026	-433.014079	249.194764	335.998105	-358.516227	122.911269	291.948901	-392.392190	370.281625	130.342407	-394.086621	263.836169	159.068942	-458.974199	-163.703857	902.900254	-266.826268	-43.493328	84.945238	-474.639607	-51.716145	80.301565	-77.156877	
